<?xml version="1.0" standalone="no"?>
<!DOCTYPE svg PUBLIC "-//W3C//DTD SVG 20010904//EN"
 "http://www.w3.org/TR/2001/REC-SVG-20010904/DTD/svg10.dtd">
<svg version="1.0" xmlns="http://www.w3.org/2000/svg"
 width="411.000000pt" height="411.000000pt" viewBox="0 0 411.000000 411.000000"
 preserveAspectRatio="xMidYMid meet">
<metadata>
Created by potrace 1.11, written by Peter Selinger 2001-2013
</metadata>
<g transform="translate(0.000000,411.000000) scale(0.100000,-0.100000)"
fill="#000000" stroke="none">
<path d="M2405 4017 c-54 -103 -136 -259 -240 -455 -38 -72 -72 -132 -75 -132
-3 0 -20 28 -38 63 -18 34 -46 87 -63 117 -46 81 -126 226 -175 318 -15 28
-30 52 -33 52 -6 0 -26 -33 -83 -140 -19 -36 -71 -130 -115 -210 -44 -80 -97
-176 -118 -215 -21 -38 -111 -203 -200 -365 -90 -162 -179 -326 -200 -365 -21
-38 -50 -92 -65 -120 -15 -27 -65 -117 -110 -200 -45 -82 -95 -173 -111 -202
-16 -28 -39 -71 -52 -95 -55 -102 -43 -96 -180 -96 -67 -1 -166 -1 -219 -1
l-98 -1 0 -100 0 -100 161 1 c89 0 163 -2 165 -4 2 -2 -27 -60 -64 -128 -97
-175 -129 -235 -170 -309 -19 -36 -57 -105 -84 -154 -27 -48 -53 -95 -58 -105
-5 -9 -45 -82 -90 -162 -44 -81 -80 -150 -80 -153 0 -3 796 -6 1770 -6 974 0
1770 2 1770 4 0 5 -45 90 -85 161 -56 100 -96 175 -93 176 2 1 154 3 338 4
184 1 336 3 338 4 2 0 -12 29 -31 64 -19 34 -65 121 -102 192 -37 72 -80 153
-95 180 -33 61 -99 185 -170 320 -29 55 -73 138 -98 185 -25 47 -62 118 -83
158 -22 39 -56 105 -78 145 -41 77 -109 205 -281 532 -29 55 -67 125 -83 155
-17 30 -33 62 -37 70 -9 19 -26 52 -55 104 -12 23 -48 91 -80 151 -32 61 -72
137 -90 170 -30 56 -65 123 -180 340 -67 127 -127 240 -129 242 -1 1 -24 -39
-51 -90z m77 -1004 c32 -62 123 -234 158 -298 15 -27 53 -99 85 -160 32 -60
75 -141 95 -180 21 -38 61 -115 90 -170 29 -55 66 -124 82 -154 16 -29 27 -56
24 -58 -6 -6 -126 -9 -135 -3 -7 4 -104 178 -229 410 -19 36 -50 91 -68 123
-19 32 -34 59 -34 61 0 2 -40 75 -89 163 l-88 161 40 76 c21 42 41 76 42 76 2
0 14 -21 27 -47z m699 -1318 c26 -49 48 -95 49 -101 0 -7 -24 -10 -66 -9 l-65
1 -25 45 c-49 85 -84 150 -84 155 0 3 32 4 71 2 l71 -3 49 -90z"/>
</g>
</svg>
