<?xml version="1.0" standalone="no"?>
<!DOCTYPE svg PUBLIC "-//W3C//DTD SVG 20010904//EN"
 "http://www.w3.org/TR/2001/REC-SVG-20010904/DTD/svg10.dtd">
<svg version="1.0" xmlns="http://www.w3.org/2000/svg"
 width="260.000000pt" height="260.000000pt" viewBox="0 0 260.000000 260.000000"
 preserveAspectRatio="xMidYMid meet">
<metadata>
Created by potrace 1.14, written by Peter Selinger 2001-2017
</metadata>
<g transform="translate(0.000000,260.000000) scale(0.100000,-0.100000)"
fill="#000000" stroke="none">
<path d="M1002 2494 c-7 -8 -22 -14 -32 -14 -11 0 -20 -5 -20 -12 0 -6 -3 -8
-7 -5 -3 4 -17 -3 -30 -15 -13 -12 -23 -18 -23 -14 0 9 -129 -121 -157 -159
-79 -107 -104 -144 -119 -177 -9 -21 -20 -38 -25 -38 -5 0 -8 -3 -7 -7 1 -5
-19 -51 -45 -105 -26 -53 -47 -101 -47 -107 0 -6 -4 -11 -9 -11 -6 0 -8 -9 -6
-20 2 -11 0 -18 -4 -15 -8 4 -24 -50 -18 -59 1 -1 -3 -9 -10 -17 -11 -14 -38
-98 -35 -111 1 -5 -3 -8 -10 -8 -6 0 -9 -3 -5 -6 3 -3 -1 -23 -8 -44 -7 -21
-11 -41 -8 -44 4 -3 1 -6 -5 -6 -6 0 -9 -9 -7 -20 2 -11 -1 -20 -6 -20 -6 0
-8 -4 -5 -8 4 -8 -8 -76 -21 -112 -3 -8 -6 -29 -7 -45 -1 -17 -5 -36 -10 -43
-4 -7 -2 -12 6 -12 8 0 9 -3 3 -8 -14 -10 -16 -26 -18 -109 -1 -40 -5 -73 -10
-73 -4 0 -6 -3 -4 -7 3 -5 8 -55 11 -113 6 -95 12 -145 16 -145 1 0 3 -9 4
-20 4 -31 28 -129 35 -140 3 -5 6 -15 7 -21 2 -12 55 -124 66 -139 4 -5 28
-34 53 -64 25 -30 45 -62 45 -70 0 -9 7 -27 15 -41 8 -14 19 -37 26 -52 6 -16
14 -26 18 -23 4 2 14 -11 21 -30 7 -19 17 -32 22 -29 4 3 8 1 8 -5 0 -25 121
-122 151 -120 7 0 3 6 -11 12 -28 14 -42 24 -96 77 -54 51 -83 91 -108 145 -8
17 -18 34 -22 38 -4 4 -9 14 -10 22 -2 17 26 9 43 -12 6 -8 14 -14 17 -14 30
4 46 -2 51 -18 8 -26 107 -131 123 -131 7 0 11 -4 8 -8 -7 -11 64 -46 87 -43
9 1 17 -3 17 -8 0 -6 17 -11 38 -10 34 0 35 1 13 10 -13 5 -26 8 -28 5 -2 -2
-16 2 -30 9 -15 8 -30 12 -35 9 -4 -3 -8 0 -8 6 0 6 -4 9 -8 6 -4 -3 -25 11
-46 30 -20 19 -39 34 -42 34 -10 0 -53 55 -54 68 0 6 -5 12 -12 12 -15 0 -1
13 17 16 8 1 15 -2 15 -7 0 -12 32 -7 42 6 5 6 8 5 8 -3 0 -8 5 -10 12 -6 7 4
23 9 37 10 63 7 175 91 217 164 10 16 22 30 27 30 4 0 5 4 2 10 -3 5 -1 10 5
10 6 0 9 4 6 9 -3 5 1 14 9 21 8 7 12 16 9 21 -3 5 -1 9 4 9 5 0 9 6 9 13 0 6
7 28 16 47 26 56 56 148 50 154 -4 3 -2 6 4 6 5 0 10 6 10 13 0 6 6 32 12 57
6 25 14 56 17 70 3 13 12 56 20 95 9 38 17 84 19 100 9 78 18 95 51 93 20 -2
27 -10 35 -43 33 -120 55 -183 63 -178 5 4 6 1 3 -5 -4 -5 6 -36 22 -69 24
-48 34 -98 21 -110 -1 -2 -3 -11 -4 -20 -1 -10 -4 -22 -8 -28 -3 -5 -9 -36
-13 -67 -4 -32 -11 -58 -16 -58 -5 0 -8 -3 -7 -7 1 -5 -4 -28 -11 -53 -7 -25
-14 -50 -15 -57 -1 -7 -5 -16 -9 -19 -10 -10 -9 -24 2 -24 10 0 37 88 33 108
-2 6 1 12 6 12 10 0 27 65 23 88 -1 6 2 12 7 12 5 0 8 14 6 31 -2 17 0 27 6
24 5 -3 7 3 5 15 -2 11 1 22 6 25 5 4 7 10 4 15 -3 4 3 14 13 21 9 7 14 10 10
5 -3 -4 7 -21 23 -38 16 -17 25 -36 22 -42 -4 -6 -8 -22 -9 -36 -1 -14 -2 -25
-3 -25 -2 0 -4 -7 -6 -15 -8 -34 -15 -67 -20 -94 -3 -15 -12 -41 -21 -57 -8
-16 -12 -29 -9 -29 3 0 -1 -13 -9 -29 -9 -16 -12 -31 -9 -35 4 -3 1 -6 -5 -6
-7 0 -12 -7 -12 -15 0 -9 -7 -29 -15 -45 -9 -17 -11 -30 -6 -30 8 0 32 49 35
72 1 3 4 10 9 14 4 4 7 16 7 26 0 10 5 18 12 18 6 0 9 3 5 6 -3 4 0 23 8 43
19 49 38 121 39 148 1 12 4 25 9 29 4 4 7 16 7 27 0 11 3 17 8 13 4 -4 7 -11
7 -15 0 -4 18 -38 40 -76 41 -70 141 -185 162 -185 6 0 13 -7 17 -15 3 -8 9
-14 13 -13 4 1 18 -3 31 -10 12 -7 22 -10 22 -7 0 3 11 -2 24 -10 38 -25 225
-21 242 6 6 10 -24 8 -41 -3 -5 -3 -49 -6 -98 -6 -65 -1 -86 2 -81 11 4 7 4 9
-1 5 -4 -4 -20 -1 -36 8 -16 8 -29 12 -29 9 0 -3 -15 5 -33 19 -19 14 -37 23
-40 19 -4 -3 -7 -2 -7 4 0 14 -68 82 -75 75 -3 -3 -5 0 -5 6 0 7 -16 35 -35
62 -20 28 -33 56 -29 62 4 6 3 8 -3 5 -6 -4 -13 5 -16 21 -6 33 -3 37 15 18
20 -20 85 -46 94 -38 4 4 4 2 1 -4 -3 -6 3 -21 14 -32 11 -12 16 -22 12 -22
-4 0 21 -27 57 -60 36 -33 71 -60 78 -60 6 0 12 -4 12 -9 0 -5 10 -7 22 -3 13
3 19 1 15 -6 -5 -6 2 -9 18 -7 14 1 28 -1 30 -5 3 -4 22 -6 42 -3 21 2 45 5
53 5 8 0 20 4 25 8 6 4 23 10 39 14 32 8 76 38 119 80 42 41 26 43 -19 1 -64
-58 -70 -62 -87 -59 -10 1 -15 -1 -12 -6 6 -10 -66 -25 -112 -23 -18 0 -33 -4
-33 -9 0 -7 -4 -7 -12 0 -7 6 -17 11 -23 12 -33 4 -62 15 -77 28 -10 8 -18 11
-18 7 0 -4 -8 1 -17 11 -10 11 -31 30 -47 42 -16 12 -26 22 -22 22 4 0 1 7 -6
15 -42 46 -48 68 -15 56 13 -5 30 -5 38 -1 8 6 16 4 21 -3 6 -9 8 -9 8 1 0 7
4 11 9 7 12 -7 117 32 136 51 8 8 16 13 18 12 1 -2 15 9 30 24 16 16 25 28 22
28 -3 0 4 9 16 21 24 24 58 95 59 122 0 9 4 17 8 17 4 0 8 12 7 28 0 15 4 30
9 33 20 15 7 444 -14 444 -1 0 -3 9 -4 20 -6 41 -28 139 -36 154 -5 9 -14 36
-21 61 -7 25 -13 47 -14 50 -1 3 -7 18 -13 33 -7 15 -15 39 -18 52 -3 14 -10
25 -15 25 -5 0 -8 3 -7 8 4 13 -13 52 -23 52 -5 0 -9 3 -8 8 2 16 -14 52 -24
52 -6 0 -8 3 -4 6 3 3 1 11 -4 18 -23 27 -92 131 -93 141 -1 7 -33 41 -71 76
-38 35 -77 73 -87 84 -10 11 -17 17 -18 13 0 -3 -11 3 -24 15 -13 12 -22 25
-20 29 3 5 12 1 20 -7 9 -8 23 -15 33 -15 9 0 22 -5 29 -12 9 -9 12 -9 12 1 0
11 -39 29 -49 22 -2 -2 -7 2 -11 9 -7 11 -28 18 -63 19 -10 1 -15 5 -12 11 3
5 0 7 -8 4 -8 -3 -21 1 -28 8 -15 15 -106 61 -111 57 -2 -1 -14 4 -28 11 -14
8 -29 15 -35 16 -5 2 -24 7 -42 12 -17 6 -34 8 -37 5 -2 -3 -11 -1 -18 3 -18
12 -188 12 -188 0 0 -4 -6 -4 -12 2 -9 7 -17 6 -26 -4z m280 -533 c4 -1 9 -16
12 -33 8 -46 21 -418 17 -464 -1 -6 -12 -16 -26 -22 -21 -10 -26 -8 -37 11 -7
12 -14 36 -14 52 -15 395 -15 436 -5 449 7 8 20 13 29 11 9 -2 20 -4 24 -4z"/>
<path d="M1683 2314 c0 -8 2 -12 5 -10 2 3 25 -9 50 -25 25 -16 50 -29 54 -29
5 0 18 -9 30 -20 12 -11 28 -20 35 -20 7 0 13 -7 13 -15 0 -8 7 -15 15 -15 9
0 18 -7 21 -15 3 -8 14 -17 25 -20 10 -4 19 -11 19 -16 0 -6 7 -17 15 -25 8
-9 15 -12 15 -8 0 4 12 -9 28 -28 15 -18 37 -45 50 -58 12 -13 22 -28 22 -32
0 -5 4 -7 9 -4 5 3 12 -6 15 -19 4 -14 11 -23 15 -20 5 3 14 -9 20 -26 6 -18
15 -28 21 -24 8 5 6 12 -4 24 -9 10 -16 23 -16 29 0 7 -7 12 -15 12 -8 0 -15
7 -15 15 0 9 -7 18 -15 21 -8 4 -12 11 -8 17 3 6 1 7 -5 3 -7 -4 -12 -1 -12 8
0 9 -7 16 -16 16 -10 0 -14 6 -11 14 4 9 -2 17 -14 21 -10 4 -17 11 -14 16 4
5 -5 14 -19 20 -14 7 -23 16 -20 20 3 5 1 9 -4 9 -5 0 -35 23 -68 50 -77 66
-72 62 -124 90 -25 14 -47 27 -50 30 -3 3 -14 10 -26 17 -17 9 -21 8 -21 -3z"/>
<path d="M1800 2136 c0 -7 23 -28 60 -56 18 -14 45 -38 59 -53 14 -16 40 -44
58 -62 17 -19 28 -37 25 -41 -4 -4 -2 -4 4 -1 6 4 16 -5 22 -19 7 -13 17 -30
22 -37 39 -46 50 -61 50 -69 0 -4 5 -8 11 -8 10 0 -20 60 -31 60 -3 0 -18 23
-35 50 -16 27 -36 50 -42 50 -7 0 -13 4 -13 10 0 5 -18 28 -40 52 -22 24 -40
46 -40 51 0 4 -6 7 -13 7 -7 0 -20 8 -29 18 -45 46 -68 62 -68 48z"/>
<path d="M2168 1874 c-4 -4 1 -19 12 -34 11 -15 17 -30 13 -34 -3 -3 -2 -6 4
-6 6 0 16 -13 23 -30 7 -16 17 -27 22 -24 7 4 7 9 0 13 -5 3 -12 16 -16 28 -4
13 -13 29 -19 35 -7 7 -17 23 -22 36 -6 13 -14 20 -17 16z"/>
<path d="M2110 1770 c0 -6 5 -10 11 -10 5 0 8 -4 4 -9 -3 -5 -1 -12 4 -16 6
-3 20 -27 33 -53 13 -26 26 -49 31 -50 4 -2 5 -7 2 -12 -6 -10 20 -62 28 -54
4 4 1 16 -5 28 -7 11 -13 24 -14 29 -1 4 -3 10 -4 15 -1 4 -2 10 -1 15 0 4 -3
7 -9 7 -5 0 -10 7 -10 15 0 8 -4 15 -10 15 -5 0 -9 3 -9 8 3 15 -26 72 -38 76
-7 3 -13 1 -13 -4z"/>
<path d="M2247 1734 c-3 -3 3 -21 13 -39 10 -18 16 -36 13 -39 -4 -3 -1 -6 6
-6 7 0 10 -3 8 -8 -3 -4 3 -25 14 -46 10 -21 16 -43 13 -47 -3 -5 0 -9 5 -9 6
0 10 -3 10 -7 -4 -26 3 -43 19 -43 9 0 13 4 7 8 -5 4 -23 44 -39 90 -32 94
-61 154 -69 146z"/>
<path d="M2220 1536 c0 -8 4 -17 10 -21 5 -3 7 -12 3 -20 -3 -8 0 -15 6 -15 6
0 10 -3 9 -7 -3 -15 14 -83 23 -88 4 -3 6 -12 2 -20 -3 -8 0 -15 6 -15 6 0 11
4 11 8 0 8 -25 90 -37 122 -4 8 -5 21 -4 28 1 6 -3 12 -9 12 -6 0 -9 4 -5 9 3
5 1 12 -5 16 -5 3 -10 -1 -10 -9z"/>
<path d="M2345 1453 c6 -4 11 -15 11 -23 1 -30 16 -90 23 -90 4 0 8 -12 9 -27
2 -45 10 -118 12 -118 4 0 9 -46 11 -103 1 -34 6 -65 11 -68 5 -3 4 -12 -2
-19 -8 -9 -8 -15 0 -20 6 -3 7 -12 3 -18 -10 -17 -11 -47 -1 -41 4 3 8 0 8 -5
0 -6 -4 -11 -10 -11 -5 0 -10 -20 -10 -44 0 -26 -5 -46 -12 -49 -9 -4 -10 -6
-1 -6 8 -1 9 -10 3 -32 -5 -18 -7 -36 -4 -40 3 -5 1 -9 -4 -9 -5 0 -9 -7 -9
-15 0 -18 17 -20 18 -2 2 26 10 73 16 87 3 8 7 35 8 60 1 25 3 45 5 45 1 0 3
35 4 77 1 42 -1 75 -5 72 -4 -2 -6 23 -5 56 1 33 0 60 -4 60 -3 0 -7 17 -9 38
-4 49 -8 77 -11 77 -1 0 -3 11 -4 25 -2 14 -7 36 -13 50 -8 18 -7 29 1 39 8
11 8 13 -1 8 -8 -5 -13 2 -15 20 -2 14 -10 28 -18 30 -9 3 -11 1 -5 -4z"/>
<path d="M2276 1332 c10 -6 31 -126 23 -128 -2 0 1 -7 7 -15 5 -8 9 -29 9 -46
-1 -18 3 -33 8 -33 10 0 7 80 -3 95 -4 6 -8 17 -8 25 -1 29 -12 92 -18 101 -3
5 -11 9 -17 9 -9 0 -9 -2 -1 -8z"/>
<path d="M2321 1085 c2 -11 0 -26 -5 -34 -6 -9 -5 -12 2 -7 8 4 10 -3 7 -24
-2 -16 0 -30 5 -30 11 0 7 96 -4 107 -4 4 -7 -1 -5 -12z"/>
<path d="M2325 960 c2 -11 0 -22 -5 -25 -9 -6 -2 -45 9 -45 3 0 7 20 8 45 1
25 -2 45 -7 45 -5 0 -7 -9 -5 -20z"/>
<path d="M2315 840 c1 -22 -2 -40 -7 -40 -4 0 -8 -7 -8 -15 0 -8 5 -15 11 -15
5 0 8 4 4 9 -3 5 -2 12 3 15 11 7 15 86 4 86 -5 0 -8 -18 -7 -40z"/>
<path d="M2295 744 c-4 -10 -10 -26 -15 -35 -4 -9 -5 -21 -1 -28 5 -8 12 3 19
30 11 43 8 69 -3 33z"/>
<path d="M2369 688 c0 -2 -3 -14 -5 -28 -3 -14 -9 -26 -14 -28 -6 -2 -10 -9
-10 -15 0 -6 -7 -19 -17 -29 -15 -17 -15 -18 0 -18 10 0 17 7 17 15 0 8 5 15
12 15 6 0 9 3 5 6 -3 3 3 21 14 40 10 19 19 37 19 39 0 5 -19 7 -21 3z"/>
<path d="M2260 668 c0 -10 -4 -18 -8 -18 -5 0 -9 -7 -9 -15 0 -8 4 -15 9 -15
4 0 8 6 8 14 0 8 4 16 10 18 6 2 6 8 0 18 -8 13 -10 12 -10 -2z"/>
<path d="M2264 512 c-27 -26 -72 -58 -99 -72 -63 -32 -59 -29 -53 -36 4 -3 21
3 40 12 18 10 36 17 41 16 4 -1 7 2 7 7 0 5 9 13 20 16 11 4 18 11 15 16 -4 5
0 9 8 9 14 0 82 68 75 75 -2 3 -26 -17 -54 -43z"/>
<path d="M1340 449 c0 -15 -36 -91 -70 -149 -16 -27 -26 -50 -22 -50 4 0 -1
-5 -10 -11 -10 -5 -18 -17 -18 -25 0 -8 -4 -13 -9 -10 -5 4 -11 3 -13 -2 -5
-12 -98 -85 -98 -77 0 4 -7 2 -15 -5 -8 -7 -15 -18 -15 -24 0 -7 4 -6 9 2 4 8
12 13 17 13 5 -1 16 5 26 13 9 8 19 12 22 9 3 -4 6 -1 6 5 0 7 7 12 16 12 8 0
13 4 9 9 -3 5 3 12 14 16 21 6 65 59 81 97 13 29 33 61 43 69 5 3 8 8 7 10 -1
2 3 16 9 32 6 15 15 38 21 52 6 16 6 25 0 25 -6 0 -10 -5 -10 -11z"/>
<path d="M1375 298 c-4 -13 -7 -26 -6 -30 1 -5 -4 -8 -9 -8 -6 0 -16 -13 -23
-28 -7 -15 -19 -36 -27 -45 -38 -44 -99 -104 -124 -120 -31 -22 -30 -29 3 -20
17 4 19 8 9 14 -10 7 -9 9 5 9 30 0 178 169 150 170 -5 0 0 5 10 11 9 5 17 17
17 24 0 8 4 15 8 15 5 0 9 7 9 15 0 23 -14 18 -22 -7z"/>
<path d="M1036 98 c3 -5 -6 -7 -20 -4 -16 3 -26 0 -26 -7 0 -7 -4 -6 -11 3 -9
13 -10 13 -6 0 4 -14 15 -15 65 -5 24 6 30 22 7 22 -8 0 -12 -4 -9 -9z"/>
<path d="M1125 31 c3 -6 -3 -10 -12 -10 -39 -1 -53 -5 -53 -13 0 -13 62 1 80
18 12 12 12 14 -3 14 -10 0 -16 -4 -12 -9z"/>
<path d="M810 20 c0 -11 63 -24 82 -17 7 3 1 6 -14 6 -15 1 -30 5 -33 11 -8
13 -35 13 -35 0z"/>
</g>
</svg>
